<svg xmlns="http://www.w3.org/2000/svg" xmlns:xlink="http://www.w3.org/1999/xlink" width="62" height="62" viewBox="0 0 62 62">
  <defs>
    <style>
      .cls-1 {
        fill: #e33323;
      }

      .cls-2 {
        fill: none;
      }

      .cls-3 {
        fill: #fff;
      }

      .cls-4 {
        filter: url(#Ellipse_2);
      }
    </style>
    <filter id="Ellipse_2" x="0" y="0" width="62" height="62" filterUnits="userSpaceOnUse">
      <feOffset dy="6" input="SourceAlpha"/>
      <feGaussianBlur stdDeviation="5" result="blur"/>
      <feFlood flood-opacity="0.161"/>
      <feComposite operator="in" in2="blur"/>
      <feComposite in="SourceGraphic"/>
    </filter>
  </defs>
  <g id="Group_80" data-name="Group 80" transform="translate(14.958 9)">
    <g class="cls-4" transform="matrix(1, 0, 0, 1, -14.96, -9)">
      <circle id="Ellipse_2-2" data-name="Ellipse 2" class="cls-1" cx="16" cy="16" r="16" transform="translate(15 9)"/>
    </g>
    <g id="round-arrow_downward-24px" transform="translate(6.29 25.945) rotate(-90)">
      <path id="Path_8" data-name="Path 8" class="cls-2" d="M0,0H18.869V18.869H0Z"/>
      <path id="Path_9" data-name="Path 9" class="cls-3" d="M5.183.786V9.568L1.346,5.731a.792.792,0,0,0-1.116,0,.783.783,0,0,0,0,1.109l5.181,5.181a.783.783,0,0,0,1.109,0L11.7,6.84a.784.784,0,1,0-1.109-1.109L6.755,9.568V.786a.786.786,0,0,0-1.572,0Z" transform="translate(3.465 3.145)"/>
    </g>
  </g>
</svg>
